<svg width="120" height="25" viewBox="0 0 120 25" fill="none" xmlns="http://www.w3.org/2000/svg">
<path d="M35.6823 13.9375C35.6823 14.6583 35.5756 15.241 35.3623 15.6857C35.1489 16.1304 34.7103 16.3528 34.0464 16.3528C33.6196 16.3528 33.26 16.2225 32.9676 15.9618C32.6752 15.7011 32.4737 15.356 32.363 14.9266L28.783 16.0998C29.0991 17.2192 29.7313 18.1355 30.6797 18.8486C31.6281 19.5617 32.8135 19.9182 34.2361 19.9182C35.3741 19.9182 36.3027 19.7265 37.0219 19.3431C37.7411 18.9598 38.3022 18.4729 38.7052 17.8825C39.1083 17.2921 39.3849 16.6442 39.5351 15.9388C39.6852 15.2333 39.7603 14.5586 39.7603 13.9145V3.19531H35.6823V13.9375Z" fill="#18181B"/>
<path d="M52.5396 9.26643C51.939 8.74504 51.2435 8.34633 50.4532 8.0703C49.6629 7.79427 48.8172 7.65625 47.9163 7.65625C47.0153 7.65625 46.1895 7.79427 45.3913 8.0703C44.5931 8.34633 43.8976 8.74504 43.3049 9.26643C42.7121 9.78782 42.2419 10.4242 41.8942 11.1756C41.5464 11.9271 41.3726 12.7705 41.3726 13.7059C41.3726 14.6414 41.5464 15.4886 41.8942 16.2477C42.2419 17.0068 42.7121 17.6509 43.3049 18.1799C43.8976 18.709 44.5931 19.1192 45.3913 19.4106C46.1895 19.7019 47.0311 19.8476 47.9163 19.8476C48.8014 19.8476 49.6629 19.7019 50.4532 19.4106C51.2435 19.1192 51.939 18.709 52.5396 18.1799C53.1402 17.6509 53.6144 17.0068 53.9621 16.2477C54.3099 15.4886 54.4837 14.6414 54.4837 13.7059C54.4837 12.7705 54.3099 11.9271 53.9621 11.1756C53.6144 10.4242 53.1402 9.78782 52.5396 9.26643ZM50.5599 14.7871C50.4413 15.1398 50.2635 15.458 50.0264 15.7417C49.7893 16.0254 49.4969 16.2516 49.1492 16.4202C48.8014 16.5889 48.3984 16.6733 47.94 16.6733C47.4816 16.6733 47.0786 16.5889 46.7308 16.4202C46.3831 16.2516 46.0907 16.0254 45.8536 15.7417C45.6165 15.458 45.4387 15.1398 45.3201 14.7871C45.2016 14.4344 45.1423 14.074 45.1423 13.7059C45.1423 13.3379 45.2016 12.9775 45.3201 12.6248C45.4387 12.2721 45.6126 11.9616 45.8417 11.6932C46.0709 11.4248 46.3594 11.2063 46.7071 11.0376C47.0549 10.8689 47.4579 10.7846 47.9163 10.7846C48.3747 10.7846 48.7777 10.8689 49.1255 11.0376C49.4732 11.2063 49.7656 11.4248 50.0027 11.6932C50.2398 11.9616 50.4216 12.2721 50.548 12.6248C50.6745 12.9775 50.7377 13.3379 50.7377 13.7059C50.7377 14.074 50.6784 14.4344 50.5599 14.7871Z" fill="#18181B"/>
<path d="M66.0539 9.31244C65.5323 8.77571 64.9079 8.3655 64.1808 8.0818C63.4538 7.7981 62.6556 7.65625 61.7862 7.65625C60.9169 7.65625 60.0475 7.80193 59.273 8.0933C58.4985 8.38467 57.8268 8.79488 57.2578 9.32394C56.6887 9.853 56.2383 10.4971 55.9063 11.2562C55.5744 12.0152 55.4084 12.8625 55.4084 13.7979C55.4084 14.7334 55.5784 15.6228 55.9182 16.3742C56.258 17.1257 56.7243 17.7582 57.317 18.2719C57.9098 18.7857 58.6013 19.1767 59.3916 19.4451C60.1819 19.7134 61.0196 19.8476 61.9048 19.8476C63.106 19.8476 64.1611 19.6368 65.0699 19.2151C65.9788 18.7933 66.7098 18.1914 67.263 17.4094L64.5602 15.7532C64.2915 16.1059 63.9438 16.3934 63.517 16.6158C63.0902 16.8381 62.5686 16.9493 61.9522 16.9493C61.6044 16.9493 61.2686 16.8956 60.9445 16.7883C60.6205 16.6809 60.3281 16.5314 60.0673 16.3397C59.8065 16.148 59.5931 15.9219 59.4272 15.6612C59.2612 15.4005 59.1624 15.1091 59.1308 14.7871H67.6898C67.7056 14.649 67.7135 14.5034 67.7135 14.35V13.89C67.7135 12.9085 67.5673 12.0344 67.2749 11.2677C66.9825 10.5009 66.5755 9.84917 66.0539 9.31244ZM59.1308 12.4408C59.1466 12.1494 59.2256 11.8696 59.3679 11.6012C59.5101 11.3328 59.6998 11.099 59.9369 10.8996C60.174 10.7003 60.4506 10.5431 60.7667 10.4281C61.0828 10.3131 61.4306 10.2555 61.8099 10.2555C62.5844 10.2555 63.1653 10.4702 63.5526 10.8996C63.9398 11.329 64.1334 11.8427 64.1334 12.4408H59.1308Z" fill="#18181B"/>
<path d="M77.0075 8.02344L74.6603 15.3843H74.5891L71.9574 8.02344H67.6423L72.5738 19.2947L72.1945 20.2378C72.0048 20.7285 71.7756 21.1081 71.5069 21.3764C71.2382 21.6448 70.8036 21.779 70.2029 21.779C70.0133 21.779 69.8038 21.7598 69.5746 21.7215C69.3454 21.6832 69.136 21.6333 68.9463 21.572L68.5196 24.7463C68.8041 24.823 69.14 24.8843 69.5272 24.9304C69.9145 24.9764 70.2899 24.9994 70.6534 24.9994C71.3963 24.9994 72.0404 24.915 72.5857 24.7463C73.131 24.5776 73.6052 24.3285 74.0082 23.9987C74.4113 23.669 74.759 23.2703 75.0514 22.8026C75.3439 22.3349 75.6086 21.802 75.8457 21.2039L81.1329 8.02344H77.0075Z" fill="#18181B"/>
<path d="M86.5266 13.9375C86.5266 14.6583 86.4199 15.241 86.2065 15.6857C85.9931 16.1304 85.5545 16.3528 84.8906 16.3528C84.4639 16.3528 84.1043 16.2225 83.8119 15.9618C83.5195 15.7011 83.3179 15.356 83.2073 14.9266L79.6272 16.0998C79.9433 17.2192 80.5756 18.1355 81.5239 18.8486C82.4723 19.5617 83.6578 19.9182 85.0803 19.9182C86.2183 19.9182 87.147 19.7265 87.8661 19.3431C88.5853 18.9598 89.1464 18.4729 89.5495 17.8825C89.9525 17.2921 90.2291 16.6442 90.3793 15.9388C90.5295 15.2333 90.6045 14.5586 90.6045 13.9145V3.19531H86.5266V13.9375Z" fill="#18181B"/>
<path d="M103.384 9.26643C102.783 8.74504 102.088 8.34633 101.297 8.0703C100.507 7.79427 99.6615 7.65625 98.7605 7.65625C97.8596 7.65625 97.0337 7.79427 96.2355 8.0703C95.4373 8.34633 94.7418 8.74504 94.1491 9.26643C93.5564 9.78782 93.0861 10.4242 92.7384 11.1756C92.3907 11.9271 92.2168 12.7705 92.2168 13.7059C92.2168 14.6414 92.3907 15.4886 92.7384 16.2477C93.0861 17.0068 93.5564 17.6509 94.1491 18.1799C94.7418 18.709 95.4373 19.1192 96.2355 19.4106C97.0337 19.7019 97.8754 19.8476 98.7605 19.8476C99.6457 19.8476 100.507 19.7019 101.297 19.4106C102.088 19.1192 102.783 18.709 103.384 18.1799C103.984 17.6509 104.459 17.0068 104.806 16.2477C105.154 15.4886 105.328 14.6414 105.328 13.7059C105.328 12.7705 105.154 11.9271 104.806 11.1756C104.459 10.4242 103.984 9.78782 103.384 9.26643ZM101.404 14.7871C101.286 15.1398 101.108 15.458 100.871 15.7417C100.634 16.0254 100.341 16.2516 99.9934 16.4202C99.6457 16.5889 99.2426 16.6733 98.7842 16.6733C98.3259 16.6733 97.9228 16.5889 97.5751 16.4202C97.2273 16.2516 96.9349 16.0254 96.6978 15.7417C96.4607 15.458 96.2829 15.1398 96.1644 14.7871C96.0458 14.4344 95.9866 14.074 95.9866 13.7059C95.9866 13.3379 96.0458 12.9775 96.1644 12.6248C96.2829 12.2721 96.4568 11.9616 96.686 11.6932C96.9152 11.4248 97.2036 11.2063 97.5514 11.0376C97.8991 10.8689 98.3022 10.7846 98.7605 10.7846C99.2189 10.7846 99.622 10.8689 99.9697 11.0376C100.317 11.2063 100.61 11.4248 100.847 11.6932C101.084 11.9616 101.266 12.2721 101.392 12.6248C101.519 12.9775 101.582 13.3379 101.582 13.7059C101.582 14.074 101.523 14.4344 101.404 14.7871Z" fill="#18181B"/>
<path d="M119.613 11.4174C119.352 10.689 118.981 10.0487 118.498 9.49668C118.016 8.94462 117.432 8.50757 116.744 8.18553C116.056 7.8635 115.286 7.70248 114.432 7.70248C113.579 7.70248 112.828 7.8635 112.227 8.18553C111.627 8.50757 111.16 8.86028 110.829 9.24365H110.781V2.08984H106.893V19.4798H110.473V17.9846H110.52C110.9 18.5674 111.441 19.0159 112.144 19.3303C112.848 19.6447 113.595 19.8018 114.385 19.8018C115.27 19.8018 116.06 19.6332 116.756 19.2958C117.451 18.9584 118.04 18.5099 118.522 17.9501C119.004 17.3904 119.372 16.7425 119.625 16.0064C119.878 15.2703 120.004 14.5036 120.004 13.7062C120.004 12.9087 119.874 12.1458 119.613 11.4174ZM116.076 14.7988C115.958 15.1592 115.78 15.4774 115.543 15.7534C115.306 16.0294 115.013 16.2518 114.665 16.4205C114.318 16.5892 113.915 16.6735 113.456 16.6735C112.998 16.6735 112.619 16.5892 112.271 16.4205C111.923 16.2518 111.627 16.0294 111.382 15.7534C111.137 15.4774 110.947 15.163 110.813 14.8103C110.678 14.4576 110.611 14.0972 110.611 13.7292C110.611 13.3611 110.678 13.0007 110.813 12.648C110.947 12.2953 111.137 11.981 111.382 11.7049C111.627 11.4289 111.923 11.2065 112.271 11.0379C112.619 10.8692 113.014 10.7848 113.456 10.7848C113.899 10.7848 114.318 10.8692 114.665 11.0379C115.013 11.2065 115.306 11.4251 115.543 11.6934C115.78 11.9618 115.958 12.2723 116.076 12.625C116.195 12.9777 116.254 13.3381 116.254 13.7062C116.254 14.0742 116.195 14.4384 116.076 14.7988Z" fill="#18181B"/>
<path d="M11.981 0C5.36222 0 0 5.20242 0 11.624C0 18.0455 5.36222 23.248 11.981 23.248C18.5998 23.248 23.9621 18.0455 23.9621 11.624C23.9621 5.20242 18.5959 0 11.981 0ZM13.0084 10.2783C13.0084 9.95246 13.3245 9.6841 13.7157 9.6841C14.1069 9.6841 14.4231 9.94863 14.4231 10.2783C14.4231 10.608 14.1069 10.8726 13.7157 10.8726C13.3245 10.8726 13.0084 10.608 13.0084 10.2783ZM22.4131 13.422C20.4531 15.5076 17.2366 16.9721 13.5142 17.2903C13.5024 16.3625 13.6367 15.2507 14.1741 14.2693C19.9789 15.1511 19.7655 13.6942 20.0461 12.7089C20.3504 11.6432 16.1301 9.92946 15.2213 8.97869C14.3124 8.02791 12.143 8.2311 12.143 8.2311C14.2571 5.35577 12.9808 3.69575 9.83535 2.6108C8.6657 6.1532 11.2065 8.31544 11.2065 8.31544C11.2065 8.31544 11.0919 8.28861 10.3925 8.36528C9.62197 6.73593 7.17597 5.04141 5.35827 4.43184C4.79715 6.26438 5.63883 9.38506 9.27423 9.45024C8.08087 11.6202 7.24315 14.8789 6.85985 16.5849C4.68256 15.9025 2.8372 14.7983 1.5411 13.4182C1.4344 12.8355 1.37513 12.2336 1.37513 11.6202C1.37908 5.94234 6.12487 1.33799 11.981 1.33799C17.8372 1.33799 22.579 5.94234 22.579 11.6202C22.579 12.2336 22.5198 12.8355 22.4131 13.4182V13.422Z" fill="#3B82F6"/>
</svg>
